name Walk1.mot
datacolumns 19
datarows 22
range 1.07500000 1.09600000
endheader

                time	   L_ground_force_vx	   L_ground_force_vy	   L_ground_force_vz	   L_ground_force_px	   L_ground_force_py	   L_ground_force_pz	   R_ground_force_vx	   R_ground_force_vy	   R_ground_force_vz	   R_ground_force_px	   R_ground_force_py	   R_ground_force_pz	   L_ground_torque_x	   L_ground_torque_y	   L_ground_torque_z	   R_ground_torque_x	   R_ground_torque_y	   R_ground_torque_z	
          1.07500000	          0.00000000	          0.00000000	          0.00000000	          0.00000000	          0.00000000	          0.00000000	          0.00000000	          0.00000000	          0.00000000	          0.00000000	          0.00000000	          0.00000000	          0.00000000	          0.00000000	          0.00000000	          0.00000000	          0.00000000	          0.00000000	
          1.07600000	          0.00000000	          0.00000000	          0.00000000	          0.00000000	          0.00000000	          0.00000000	          0.00000000	          0.00000000	          0.00000000	          0.00000000	          0.00000000	          0.00000000	          0.00000000	          0.00000000	          0.00000000	          0.00000000	          0.00000000	          0.00000000	
          1.07700000	          0.00000000	          0.00000000	          0.00000000	          0.00000000	          0.00000000	          0.00000000	          0.00000000	          0.00000000	          0.00000000	          0.00000000	          0.00000000	          0.00000000	          0.00000000	          0.00000000	          0.00000000	          0.00000000	          0.00000000	          0.00000000	
          1.07800000	          0.00000000	          0.00000000	          0.00000000	          0.00000000	          0.00000000	          0.00000000	          0.00000000	          0.00000000	          0.00000000	          0.00000000	          0.00000000	          0.00000000	          0.00000000	          0.00000000	          0.00000000	          0.00000000	          0.00000000	          0.00000000	
          1.07900000	          0.00000000	          0.00000000	          0.00000000	          0.00000000	          0.00000000	          0.00000000	         -4.31792896	         14.27207780	         -0.34730067	         -0.21109933	          0.00000000	          0.32662739	          0.00000000	          0.00000000	          0.00000000	          0.00000000	         -0.25979272	          0.00000000	
          1.08000000	          0.00000000	          0.00000000	          0.00000000	          0.00000000	          0.00000000	          0.00000000	         -6.90562379	         25.72506247	         -0.33523637	         -0.22042686	          0.00000000	          0.33529629	          0.00000000	          0.00000000	          0.00000000	          0.00000000	         -0.30943758	          0.00000000	
          1.08100000	          0.00000000	          0.00000000	          0.00000000	          0.00000000	          0.00000000	          0.00000000	        -10.01515637	         41.93056125	         -0.17540522	         -0.22690695	          0.00000000	          0.34121821	          0.00000000	          0.00000000	          0.00000000	          0.00000000	         -0.33238304	          0.00000000	
          1.08200000	          0.00000000	          0.00000000	          0.00000000	          0.00000000	          0.00000000	          0.00000000	        -13.51843743	         64.04420312	          0.18506708	         -0.23134868	          0.00000000	          0.34511564	          0.00000000	          0.00000000	          0.00000000	          0.00000000	         -0.33100998	          0.00000000	
          1.08300000	          0.00000000	          0.00000000	          0.00000000	          0.00000000	          0.00000000	          0.00000000	        -17.15329537	         92.95732753	          0.80152546	         -0.23420664	          0.00000000	          0.34742515	          0.00000000	          0.00000000	          0.00000000	          0.00000000	         -0.31513322	          0.00000000	
          1.08400000	          0.00000000	          0.00000000	          0.00000000	          0.00000000	          0.00000000	          0.00000000	        -20.48545936	        128.58547624	          1.75393122	         -0.23592084	          0.00000000	          0.34855961	          0.00000000	          0.00000000	          0.00000000	          0.00000000	         -0.29722752	          0.00000000	
          1.08500000	          0.00000000	          0.00000000	          0.00000000	          0.00000000	          0.00000000	          0.00000000	        -22.99262555	        169.39714301	          3.15218932	         -0.23688877	          0.00000000	          0.34893080	          0.00000000	          0.00000000	          0.00000000	          0.00000000	         -0.28713164	          0.00000000	
          1.08600000	          0.00000000	          0.00000000	          0.00000000	          0.00000000	          0.00000000	          0.00000000	        -24.24639223	        212.47627320	          5.10290906	         -0.23737805	          0.00000000	          0.34893343	          0.00000000	          0.00000000	          0.00000000	          0.00000000	         -0.28522838	          0.00000000	
          1.08700000	          0.00000000	          0.00000000	          0.00000000	          0.00000000	          0.00000000	          0.00000000	        -24.09404844	        254.22885458	          7.64177764	         -0.23755427	          0.00000000	          0.34885121	          0.00000000	          0.00000000	          0.00000000	          0.00000000	         -0.28440293	          0.00000000	
          1.08800000	          0.00000000	          0.00000000	          0.00000000	          0.00000000	          0.00000000	          0.00000000	        -22.72746618	        291.40299640	         10.68464013	         -0.23754448	          0.00000000	          0.34880487	          0.00000000	          0.00000000	          0.00000000	          0.00000000	         -0.28052498	          0.00000000	
          1.08900000	          0.00000000	          0.00000000	          0.00000000	          0.00000000	          0.00000000	          0.00000000	        -20.60600481	        321.81779834	         14.05226740	         -0.23743970	          0.00000000	          0.34878547	          0.00000000	          0.00000000	          0.00000000	          0.00000000	         -0.27841515	          0.00000000	
          1.09000000	          0.00000000	          0.00000000	          0.00000000	          0.00000000	          0.00000000	          0.00000000	        -18.28572373	        344.49891295	         17.54155177	         -0.23727607	          0.00000000	          0.34873968	          0.00000000	          0.00000000	          0.00000000	          0.00000000	         -0.28514559	          0.00000000	
          1.09100000	          0.00000000	          0.00000000	          0.00000000	          0.00000000	          0.00000000	          0.00000000	        -16.24127573	        359.43923143	         20.97561882	         -0.23705181	          0.00000000	          0.34866171	          0.00000000	          0.00000000	          0.00000000	          0.00000000	         -0.30079266	          0.00000000	
          1.09200000	          0.00000000	          0.00000000	          0.00000000	          0.00000000	          0.00000000	          0.00000000	        -14.75497796	        367.35280206	         24.21536885	         -0.23677174	          0.00000000	          0.34858646	          0.00000000	          0.00000000	          0.00000000	          0.00000000	         -0.32123670	          0.00000000	
          1.09300000	          0.00000000	          0.00000000	          0.00000000	          0.00000000	          0.00000000	          0.00000000	        -13.90974908	        369.51029474	         27.15410281	         -0.23646300	          0.00000000	          0.34851501	          0.00000000	          0.00000000	          0.00000000	          0.00000000	         -0.34562596	          0.00000000	
          1.09400000	          0.00000000	          0.00000000	          0.00000000	          0.00000000	          0.00000000	          0.00000000	        -13.65895896	        367.53587283	         29.72113571	         -0.23614241	          0.00000000	          0.34841739	          0.00000000	          0.00000000	          0.00000000	          0.00000000	         -0.37516027	          0.00000000	
          1.09500000	          0.00000000	          0.00000000	          0.00000000	          0.00000000	          0.00000000	          0.00000000	        -13.90389875	        363.17105176	         31.90347796	         -0.23577952	          0.00000000	          0.34828302	          0.00000000	          0.00000000	          0.00000000	          0.00000000	         -0.41027355	          0.00000000	
          1.09600000	          0.00000000	          0.00000000	          0.00000000	          0.00000000	          0.00000000	          0.00000000	        -14.54399555	        358.11291315	         33.76205188	         -0.23529718	          0.00000000	          0.34813677	          0.00000000	          0.00000000	          0.00000000	          0.00000000	         -0.45272754	          0.00000000	
